<svg width="342.601" height="101.6" viewBox="0 0 342.601 101.6" xmlns="http://www.w3.org/2000/svg"><g id="svgGroup" stroke-linecap="round" fill-rule="evenodd" font-size="9pt" stroke="#9400d3" stroke-width="0.40" fill="#9400d3" style="stroke:#9400d3;stroke-width:0.40;fill:#9400d3"><path d="M 74.601 36.4 L 74.601 71.3 L 73.101 68.4 L 82.001 75.1 L 82.001 76.5 L 58.201 76.5 L 58.201 75.1 L 67.201 68.3 L 65.601 71.3 L 65.601 37.1 L 69.901 43.4 L 58.301 35.2 L 58.301 33.7 L 72.301 28.1 L 74.601 28.1 L 74.101 36.4 L 74.601 36.4 L 73.101 36.4 L 73.101 43 A 38.513 38.513 0 0 1 74.206 41.773 Q 77.46 38.317 80.751 36.65 Q 84.601 34.7 89.201 34.7 A 19.101 19.101 0 0 1 91.674 34.851 Q 93.252 35.057 94.51 35.547 A 7.444 7.444 0 0 1 97.601 37.7 Q 99.437 39.903 99.924 44.317 A 31.837 31.837 0 0 1 100.101 47.8 L 100.101 71.1 L 101.701 68.3 L 92.701 75.1 L 92.701 76.5 L 116.401 76.5 L 116.401 75.1 L 107.501 68.4 L 109.101 71.3 L 109.101 45.4 A 34.128 34.128 0 0 0 108.873 41.34 Q 108.56 38.736 107.819 36.618 A 14.022 14.022 0 0 0 105.051 31.8 Q 101.001 27.3 92.701 27.3 Q 86.443 27.3 80.037 31.799 A 42.629 42.629 0 0 0 74.601 36.4 Z M 226.601 51.1 L 188.301 51.1 L 188.301 47.1 L 216.001 45 Q 216.001 40.323 214.014 37.262 A 10.311 10.311 0 0 0 213.051 36 A 9.718 9.718 0 0 0 206.759 32.797 A 13.685 13.685 0 0 0 205.101 32.7 Q 201.201 32.7 198.151 35.1 A 14.304 14.304 0 0 0 194.733 39.04 A 18.949 18.949 0 0 0 193.401 41.75 A 23.242 23.242 0 0 0 192.003 47.082 A 30.951 30.951 0 0 0 191.701 51.5 Q 191.701 60.9 196.201 66.05 A 14.611 14.611 0 0 0 204.407 70.746 A 22.019 22.019 0 0 0 209.001 71.2 A 23.919 23.919 0 0 0 215.622 70.325 A 18.624 18.624 0 0 0 223.401 65.9 L 225.601 68.3 Q 222.401 72.8 217.251 75.25 A 25.515 25.515 0 0 1 207.812 77.64 A 30.201 30.201 0 0 1 205.901 77.7 A 27.086 27.086 0 0 1 199.007 76.853 A 22.65 22.65 0 0 1 193.651 74.7 Q 188.301 71.7 185.301 66.4 A 23.199 23.199 0 0 1 182.444 57.203 A 28.769 28.769 0 0 1 182.301 54.3 A 33.934 33.934 0 0 1 183.051 47.008 A 26.569 26.569 0 0 1 185.501 40.25 Q 188.701 34.2 194.301 30.75 Q 199.901 27.3 207.201 27.3 A 20.848 20.848 0 0 1 212.463 27.937 A 16.659 16.659 0 0 1 217.551 30.2 Q 221.901 33.1 224.251 38.45 Q 226.601 43.8 226.601 51.1 Z M 242.701 77.2 L 242.701 74.4 L 249.101 74.4 L 249.101 77.7 A 10.834 10.834 0 0 0 245.949 80.216 Q 244.086 82.439 243.838 85.607 A 12.745 12.745 0 0 0 243.801 86.6 A 8.184 8.184 0 0 0 246.801 93.077 A 12.098 12.098 0 0 0 248.351 94.2 A 16.869 16.869 0 0 0 252.768 96.064 Q 256.191 97 260.701 97 A 32.916 32.916 0 0 0 265.344 96.693 Q 267.75 96.35 269.725 95.621 A 15 15 0 0 0 272.701 94.15 A 10.549 10.549 0 0 0 275.295 91.837 A 8.537 8.537 0 0 0 277.101 86.4 A 9.747 9.747 0 0 0 276.712 83.579 A 7.537 7.537 0 0 0 274.451 80.05 A 8.954 8.954 0 0 0 270.652 78.088 Q 269.129 77.7 267.301 77.7 L 247.601 77.7 Q 243.167 77.7 240.37 75.571 A 9.218 9.218 0 0 1 239.801 75.1 A 8.556 8.556 0 0 1 237.03 69.814 A 12.286 12.286 0 0 1 236.901 68 A 12.728 12.728 0 0 1 237.164 65.352 A 9.844 9.844 0 0 1 238.101 62.75 Q 239.301 60.5 241.451 59.2 A 9.038 9.038 0 0 1 245.29 57.954 A 11.273 11.273 0 0 1 246.401 57.9 L 249.301 60.8 Q 247.49 60.8 246.256 61.404 A 4.357 4.357 0 0 0 245.401 61.95 A 3.745 3.745 0 0 0 244.061 64.371 A 5.504 5.504 0 0 0 244.001 65.2 A 4.726 4.726 0 0 0 244.149 66.425 A 3.085 3.085 0 0 0 245.601 68.35 Q 246.956 69.155 249.674 69.278 A 22.715 22.715 0 0 0 250.701 69.3 L 268.601 69.3 A 22.719 22.719 0 0 1 274.04 69.918 A 16.354 16.354 0 0 1 280.851 73.35 A 12.982 12.982 0 0 1 285.572 82.814 A 16.539 16.539 0 0 1 285.601 83.8 Q 285.601 89 282.101 93.05 Q 278.601 97.1 272.401 99.35 A 36.204 36.204 0 0 1 265.277 101.106 A 49.601 49.601 0 0 1 258.101 101.6 A 44.075 44.075 0 0 1 251.972 101.194 A 32.559 32.559 0 0 1 245.851 99.75 A 25.456 25.456 0 0 1 241.892 98.016 Q 239.73 96.827 238.137 95.299 A 14.931 14.931 0 0 1 237.501 94.65 Q 234.501 91.4 234.501 87.2 A 9.469 9.469 0 0 1 236.59 81.264 A 11.938 11.938 0 0 1 236.801 81 Q 239.101 78.2 242.701 77.2 Z M 160.101 69.1 L 161.601 69.1 L 161.601 62.5 A 33.681 33.681 0 0 1 160.806 63.468 Q 159.381 65.139 157.903 66.406 A 18.499 18.499 0 0 1 154.501 68.75 A 16.295 16.295 0 0 1 150.942 70.117 A 19.408 19.408 0 0 1 146.101 70.7 A 16.346 16.346 0 0 1 144.305 70.604 A 11.456 11.456 0 0 1 135.951 65.85 A 15.64 15.64 0 0 1 133.98 62.171 Q 133.141 59.973 132.747 57.267 A 36.009 36.009 0 0 1 132.401 52.1 A 28.036 28.036 0 0 1 132.689 48.008 A 21.611 21.611 0 0 1 134.451 42 A 19.684 19.684 0 0 1 135.422 40.168 A 15.838 15.838 0 0 1 140.101 35.15 A 13.99 13.99 0 0 1 142.632 33.78 A 14.692 14.692 0 0 1 148.301 32.7 A 23.009 23.009 0 0 1 151.579 32.926 A 17.804 17.804 0 0 1 157.451 34.8 Q 161.401 36.9 163.601 40.8 L 163.601 31.4 Q 160.166 28.886 155.566 27.913 A 30.285 30.285 0 0 0 149.301 27.3 A 32.319 32.319 0 0 0 145.787 27.487 A 25.854 25.854 0 0 0 135.651 30.7 Q 129.701 34.1 126.351 40.1 Q 123.001 46.1 123.001 53.9 Q 123.001 57.208 123.514 60.115 A 25.676 25.676 0 0 0 125.501 66.55 A 22.666 22.666 0 0 0 125.988 67.532 A 18.594 18.594 0 0 0 132.651 74.8 A 18.45 18.45 0 0 0 137.885 77.02 A 23.041 23.041 0 0 0 143.601 77.7 A 18.936 18.936 0 0 0 145.353 77.619 A 19.683 19.683 0 0 0 152.701 75.4 Q 157.101 73.1 160.101 69.1 Z M 165.001 77.7 L 163.301 77.7 L 161.001 69.1 L 160.101 69.1 L 160.101 9 L 164.401 15.3 L 152.801 7.1 L 152.801 5.6 L 166.801 0 L 169.101 0 L 169.101 68.4 L 165.001 62.7 L 175.701 70.2 L 175.701 71.7 L 165.001 77.7 Z M 17.502 76.811 A 28.155 28.155 0 0 0 24.701 77.7 A 31.707 31.707 0 0 0 28.885 77.432 A 24.784 24.784 0 0 0 38.051 74.4 Q 43.801 71.1 47.101 65.3 A 24.335 24.335 0 0 0 49.469 59.489 A 29.062 29.062 0 0 0 50.401 52 A 30.733 30.733 0 0 0 50.151 48.032 A 24.107 24.107 0 0 0 47.251 39.15 Q 44.101 33.6 38.551 30.45 Q 33.001 27.3 25.701 27.3 Q 18.201 27.3 12.401 30.6 Q 6.601 33.9 3.301 39.65 Q 0.001 45.4 0.001 53 A 30.626 30.626 0 0 0 0.162 56.18 A 24.604 24.604 0 0 0 3.151 65.8 Q 6.301 71.4 11.901 74.55 A 23.686 23.686 0 0 0 17.502 76.811 Z M 309.702 76.811 A 28.155 28.155 0 0 0 316.901 77.7 A 31.707 31.707 0 0 0 321.085 77.432 A 24.784 24.784 0 0 0 330.251 74.4 Q 336.001 71.1 339.301 65.3 A 24.335 24.335 0 0 0 341.669 59.489 A 29.062 29.062 0 0 0 342.601 52 A 30.733 30.733 0 0 0 342.351 48.032 A 24.107 24.107 0 0 0 339.451 39.15 Q 336.301 33.6 330.751 30.45 Q 325.201 27.3 317.901 27.3 Q 310.401 27.3 304.601 30.6 Q 298.801 33.9 295.501 39.65 Q 292.201 45.4 292.201 53 A 30.626 30.626 0 0 0 292.362 56.18 A 24.604 24.604 0 0 0 295.351 65.8 Q 298.501 71.4 304.101 74.55 A 23.686 23.686 0 0 0 309.702 76.811 Z M 257.501 62.6 Q 251.601 62.6 247.051 60.4 A 18.521 18.521 0 0 1 242.405 57.255 A 16.328 16.328 0 0 1 239.951 54.35 Q 237.401 50.5 237.401 45.5 A 17.617 17.617 0 0 1 238.28 39.855 A 15.634 15.634 0 0 1 240.201 36 Q 243.001 31.9 247.901 29.6 A 23.937 23.937 0 0 1 254.612 27.623 A 31.386 31.386 0 0 1 259.201 27.3 Q 265.101 27.3 269.651 29.5 A 18.521 18.521 0 0 1 274.296 32.645 A 16.328 16.328 0 0 1 276.751 35.55 Q 279.301 39.4 279.301 44.4 A 17.077 17.077 0 0 1 278.095 50.861 A 16.167 16.167 0 0 1 276.501 53.85 A 18.28 18.28 0 0 1 269.847 59.775 A 22.092 22.092 0 0 1 268.801 60.3 A 23.937 23.937 0 0 1 262.09 62.277 A 31.386 31.386 0 0 1 257.501 62.6 Z M 25.701 72.3 A 14.255 14.255 0 0 0 30.415 71.541 A 12.78 12.78 0 0 0 33.601 69.9 A 15.308 15.308 0 0 0 37.849 65.291 A 19.391 19.391 0 0 0 38.951 63.2 A 21.482 21.482 0 0 0 40.603 57.477 A 28.224 28.224 0 0 0 40.901 53.3 Q 40.901 47.2 38.851 42.6 A 19.157 19.157 0 0 0 36.13 38.152 A 16.25 16.25 0 0 0 33.151 35.35 A 13.913 13.913 0 0 0 25.148 32.706 A 17.102 17.102 0 0 0 24.701 32.7 A 14.255 14.255 0 0 0 19.986 33.459 A 12.78 12.78 0 0 0 16.801 35.1 A 15.308 15.308 0 0 0 12.552 39.709 A 19.391 19.391 0 0 0 11.451 41.8 A 21.482 21.482 0 0 0 9.798 47.523 A 28.224 28.224 0 0 0 9.501 51.7 Q 9.501 57.7 11.551 62.35 A 19.312 19.312 0 0 0 14.169 66.712 A 16.102 16.102 0 0 0 17.251 69.65 A 13.913 13.913 0 0 0 25.253 72.294 A 17.102 17.102 0 0 0 25.701 72.3 Z M 317.901 72.3 A 14.255 14.255 0 0 0 322.615 71.541 A 12.78 12.78 0 0 0 325.801 69.9 A 15.308 15.308 0 0 0 330.049 65.291 A 19.391 19.391 0 0 0 331.151 63.2 A 21.482 21.482 0 0 0 332.803 57.477 A 28.224 28.224 0 0 0 333.101 53.3 Q 333.101 47.2 331.051 42.6 A 19.157 19.157 0 0 0 328.33 38.152 A 16.25 16.25 0 0 0 325.351 35.35 A 13.913 13.913 0 0 0 317.348 32.706 A 17.102 17.102 0 0 0 316.901 32.7 A 14.255 14.255 0 0 0 312.186 33.459 A 12.78 12.78 0 0 0 309.001 35.1 A 15.308 15.308 0 0 0 304.752 39.709 A 19.391 19.391 0 0 0 303.651 41.8 A 21.482 21.482 0 0 0 301.998 47.523 A 28.224 28.224 0 0 0 301.701 51.7 Q 301.701 57.7 303.751 62.35 A 19.312 19.312 0 0 0 306.369 66.712 A 16.102 16.102 0 0 0 309.451 69.65 A 13.913 13.913 0 0 0 317.453 72.294 A 17.102 17.102 0 0 0 317.901 72.3 Z M 258.701 57.7 A 14.097 14.097 0 0 0 262.229 57.282 A 9.984 9.984 0 0 0 266.951 54.6 A 10.324 10.324 0 0 0 269.672 49.441 A 15.166 15.166 0 0 0 270.001 46.2 Q 270.001 41.1 268.03 37.693 A 11.702 11.702 0 0 0 266.801 35.95 A 10.484 10.484 0 0 0 259.86 32.311 A 15.03 15.03 0 0 0 258.001 32.2 A 14.097 14.097 0 0 0 254.472 32.618 A 9.984 9.984 0 0 0 249.751 35.3 A 10.324 10.324 0 0 0 247.029 40.459 A 15.166 15.166 0 0 0 246.701 43.7 A 20.416 20.416 0 0 0 247.118 47.954 Q 247.865 51.462 249.951 53.9 A 10.662 10.662 0 0 0 257.524 57.655 A 14.914 14.914 0 0 0 258.701 57.7 Z M 271.701 31.1 L 262.001 31.1 L 284.101 19.5 L 285.601 19.5 L 285.601 29.9 L 285.001 30.4 L 271.701 30.4 L 271.701 31.1 Z M 35.201 20.1 Q 32.501 20.1 30.751 18.45 A 5.496 5.496 0 0 1 29.011 14.6 A 7.408 7.408 0 0 1 29.001 14.2 A 6.292 6.292 0 0 1 29.334 12.111 A 5.377 5.377 0 0 1 30.751 9.95 A 5.997 5.997 0 0 1 34.301 8.349 A 8.099 8.099 0 0 1 35.201 8.3 A 7.766 7.766 0 0 1 37.228 8.552 A 5.828 5.828 0 0 1 39.751 9.95 A 5.496 5.496 0 0 1 41.49 13.8 A 7.408 7.408 0 0 1 41.501 14.2 A 6.292 6.292 0 0 1 41.167 16.289 A 5.377 5.377 0 0 1 39.751 18.45 Q 38.001 20.1 35.201 20.1 Z M 327.401 20.1 Q 324.701 20.1 322.951 18.45 A 5.496 5.496 0 0 1 321.211 14.6 A 7.408 7.408 0 0 1 321.201 14.2 A 6.292 6.292 0 0 1 321.534 12.111 A 5.377 5.377 0 0 1 322.951 9.95 A 5.997 5.997 0 0 1 326.501 8.349 A 8.099 8.099 0 0 1 327.401 8.3 A 7.766 7.766 0 0 1 329.428 8.552 A 5.828 5.828 0 0 1 331.951 9.95 A 5.496 5.496 0 0 1 333.69 13.8 A 7.408 7.408 0 0 1 333.701 14.2 A 6.292 6.292 0 0 1 333.367 16.289 A 5.377 5.377 0 0 1 331.951 18.45 Q 330.201 20.1 327.401 20.1 Z M 216.201 20.1 Q 213.501 20.1 211.751 18.45 A 5.496 5.496 0 0 1 210.011 14.6 A 7.408 7.408 0 0 1 210.001 14.2 A 6.292 6.292 0 0 1 210.334 12.111 A 5.377 5.377 0 0 1 211.751 9.95 A 5.997 5.997 0 0 1 215.301 8.349 A 8.099 8.099 0 0 1 216.201 8.3 A 7.766 7.766 0 0 1 218.228 8.552 A 5.828 5.828 0 0 1 220.751 9.95 A 5.496 5.496 0 0 1 222.49 13.8 A 7.408 7.408 0 0 1 222.501 14.2 A 6.292 6.292 0 0 1 222.167 16.289 A 5.377 5.377 0 0 1 220.751 18.45 Q 219.001 20.1 216.201 20.1 Z M 196.101 20.1 Q 193.401 20.1 191.651 18.45 A 5.496 5.496 0 0 1 189.911 14.6 A 7.408 7.408 0 0 1 189.901 14.2 A 6.292 6.292 0 0 1 190.234 12.111 A 5.377 5.377 0 0 1 191.651 9.95 A 5.997 5.997 0 0 1 195.201 8.349 A 8.099 8.099 0 0 1 196.101 8.3 Q 198.801 8.3 200.551 9.95 A 5.496 5.496 0 0 1 202.29 13.8 A 7.408 7.408 0 0 1 202.301 14.2 A 6.292 6.292 0 0 1 201.967 16.289 A 5.377 5.377 0 0 1 200.551 18.45 A 5.997 5.997 0 0 1 197.001 20.051 A 8.099 8.099 0 0 1 196.101 20.1 Z M 15.101 20.1 Q 12.401 20.1 10.651 18.45 A 5.496 5.496 0 0 1 8.911 14.6 A 7.408 7.408 0 0 1 8.901 14.2 A 6.292 6.292 0 0 1 9.234 12.111 A 5.377 5.377 0 0 1 10.651 9.95 A 5.997 5.997 0 0 1 14.201 8.349 A 8.099 8.099 0 0 1 15.101 8.3 Q 17.801 8.3 19.551 9.95 A 5.496 5.496 0 0 1 21.29 13.8 A 7.408 7.408 0 0 1 21.301 14.2 A 6.292 6.292 0 0 1 20.967 16.289 A 5.377 5.377 0 0 1 19.551 18.45 A 5.997 5.997 0 0 1 16.001 20.051 A 8.099 8.099 0 0 1 15.101 20.1 Z M 307.301 20.1 Q 304.601 20.1 302.851 18.45 A 5.496 5.496 0 0 1 301.111 14.6 A 7.408 7.408 0 0 1 301.101 14.2 A 6.292 6.292 0 0 1 301.434 12.111 A 5.377 5.377 0 0 1 302.851 9.95 A 5.997 5.997 0 0 1 306.401 8.349 A 8.099 8.099 0 0 1 307.301 8.3 Q 310.001 8.3 311.751 9.95 A 5.496 5.496 0 0 1 313.49 13.8 A 7.408 7.408 0 0 1 313.501 14.2 A 6.292 6.292 0 0 1 313.167 16.289 A 5.377 5.377 0 0 1 311.751 18.45 A 5.997 5.997 0 0 1 308.201 20.051 A 8.099 8.099 0 0 1 307.301 20.1 Z" vector-effect="non-scaling-stroke"/></g></svg>